# xmcd
#
# Track frame offsets: 
#        150
#        22093
#        46539
#        70347
#        91404
#        116704
#        136211
#        158320
#        178868
#        199969
#
# Disc length: 3056 seconds
#
# Revision: 0
# Processed by: cddbd v1.5.2PL0 Copyright (c) Steve Scherf et al.
# Submitted via: ExactAudioCopy v1.0b3
#
DISCID=820bee0a
DTITLE=Various Artist - Tinh ca Anh Bang 4
DYEAR=2009
DGENRE=
TTITLE0=Tuan Vu - Anh biet em di chang tro ve
TTITLE1=Huong Lan - Linh hon tuong da
TTITLE2=Thai Chau - Sai Gon thu bay
TTITLE3=Thanh Thuy - Neu hai dua minh
TTITLE4=Elvis Phuong - Tam hon co don
TTITLE5=Huong Lan - Viet tu KBC
TTITLE6=Truong Vu - No
TTITLE7=Nhu Mai - Giot buon khong ten
TTITLE8=Tuan Anh - Net son buon
TTITLE9=Thu Phuong - Du nang co mong manh
EXTD=
EXTT0=
EXTT1=
EXTT2=
EXTT3=
EXTT4=
EXTT5=
EXTT6=
EXTT7=
EXTT8=
EXTT9=
PLAYORDER=
